# xmcd CD database file generated by Grip 2.95
# 
# Track frame offsets:
#       183
#       16705
#       32953
#       47965
#       67385
#       90155
#       111235
#       127235
#       147390
#       163613
#       173460
# 
# Disc length: 2482 seconds
# 
# Revision: 3
# Processed by: cddbd v1.4b41PL1 Copyright (c) Steve Scherf et al.
# Submitted via: Grip 2.95
# 
DISCID=9709b00b
DTITLE=Professor Longhair - The Big Easy
DYEAR=1900
DGENRE=
TTITLE0=Big Chief
TTITLE1=Tipitina
TTITLE2=Gone So Long
TTITLE3=How Long Has That Train Been Gone
TTITLE4=Messing Around
TTITLE5=Baldhead
TTITLE6=Her Mind Is Gone
TTITLE7=Doing It
TTITLE8=Big Chief (alternate version)
TTITLE9=Going To The Mardi Gras
TTITLE10=She Ain't Got No Hair
EXTD=
EXTT0=
EXTT1=
EXTT2=
EXTT3=
EXTT4=
EXTT5=
EXTT6=
EXTT7=
EXTT8=
EXTT9=
EXTT10=
PLAYORDER=
